# xmcd CD database file
#
# Track frame offsets:
#	150
#	13289
#	25291
#	41708
#	55186
#	66000
#	77430
#	92422
#	109538
#	126187
#	139514
#	153367
#	167163
#	179233
#	198119
#	209719
#	224541
#	235853
#	246196
#	259476
#
# Disc length: 3638 seconds
#
# Revision: 0
# Processed by: cddbd v1.5.1PL0 Copyright (c) Steve Scherf et al.
# Submitted via: Feurio! 1.68 - http://www.feurio.com
#
DISCID=210e3414
DTITLE=The Oak Ridge Boys - Mix
DYEAR=1900
DGENRE=
TTITLE0=Bobbie Sue
TTITLE1=All The Gold In California
TTITLE2=Angels Watching Over Me (1)
TTITLE3=Come On In
TTITLE4=Counting Flowers On The Wall
TTITLE5=Daddy Sang Base
TTITLE6=Dream On
TTITLE7=Elvira
TTITLE8=Fancy Free
TTITLE9=Go Tell It On
TTITLE10=Gonna Take A Lot A Of River
TTITLE11=Leaving Louisiana In The Broad
TTITLE12=My Baby Is American Made
TTITLE13=Put Your Hand In The Hand
TTITLE14=Thank God For Kids
TTITLE15=The Baptism Of Jesse Taylor
TTITLE16=Trying To Love Two Women
TTITLE17=What A Day That Will Be
TTITLE18=Y´All Come Back Saloon
TTITLE19=You´re The One
EXTD=
EXTT0=
EXTT1=
EXTT2=
EXTT3=
EXTT4=
EXTT5=
EXTT6=
EXTT7=
EXTT8=
EXTT9=
EXTT10=
EXTT11=
EXTT12=
EXTT13=
EXTT14=
EXTT15=
EXTT16=
EXTT17=
EXTT18=
EXTT19=
PLAYORDER=
